<svg width="291" height="286" viewBox="0 0 291 286" fill="none" xmlns="http://www.w3.org/2000/svg">
<path d="M146.047 262.952C144.833 262.952 143.376 262.952 142.162 262.291C34.3626 229.903 35.8197 155.655 36.5725 101.676V86.6942C36.5725 80.5252 41.9151 75.6782 48.7147 75.6782C49.2004 75.6782 104.933 75.2375 137.038 45.9347C141.652 41.7486 149.69 41.7486 154.304 45.9347C186.675 75.2375 242.141 75.6782 242.627 75.6782C249.426 75.6782 254.769 80.5252 254.769 86.6942V101.676C255.764 155.655 257.222 229.683 149.447 262.511C148.233 262.952 147.018 263.172 145.561 263.172L146.047 262.952Z" fill="#1BB66C"/>
<path d="M141.969 262.755C143.111 263.359 144.422 263.439 145.513 263.45L145.561 263.672C147.07 263.672 148.338 263.444 149.605 262.985C203.598 246.536 230.303 219.738 243.354 190.227C256.36 160.818 255.769 128.781 255.272 101.845L255.269 101.676V101.672V86.6942C255.269 80.2044 249.655 75.1782 242.627 75.1782C242.406 75.1782 228.454 75.0694 210.525 71.3057C192.586 67.54 170.729 60.1284 154.639 45.5641C149.835 41.2054 141.506 41.2055 136.702 45.5644L136.7 45.5655C120.745 60.1283 98.8892 67.5398 80.9167 71.3056C62.9538 75.0694 48.9357 75.1782 48.7147 75.1782C41.6858 75.1782 36.0725 80.2044 36.0725 86.6942V101.673V101.676L36.0632 102.334C35.6881 129.169 35.2423 161.051 48.203 190.283C61.2844 219.787 87.9873 246.525 141.969 262.755Z" stroke="white" stroke-opacity="0.86"/>
<g filter="url(#filter0_d_5_423)">
<rect x="34.0012" y="198.501" width="217.607" height="39.1013" rx="19.5507" fill="#1BB66C"/>
</g>
<g filter="url(#filter1_f_5_423)">
<path d="M194.025 116.909C200.301 111.372 212.146 100.403 207.268 128.02C232.479 139.358 222.315 149.039 224.622 153.71C225.185 154.874 225.961 155.903 226.903 156.732C227.844 157.562 228.932 158.177 230.099 158.538M209.171 143.96C212.423 144.319 213.922 144.757 216.043 146.743M207.668 160.441C209.403 168.784 218.686 179.473 230.562 165.234M179.56 128.728C160.394 136.654 163.3 166.773 145.115 174.699" stroke="white" stroke-width="3" stroke-linecap="round" stroke-linejoin="round"/>
<path d="M76.2821 100.152C90.9199 93.0725 99.154 89.9061 108.61 98.2645C120.459 108.737 131.005 137.313 167.815 139.451" stroke="white" stroke-width="3" stroke-linecap="round" stroke-linejoin="round"/>
<path d="M105.385 113.919C109.395 121.653 115.581 135.523 111.048 143.96M100.943 159.855C102.683 168.725 104.904 175.608 107.956 180.938M84.4116 141.246C85.1701 149.358 88.8897 152.185 94.9892 152.122M64.9006 111.372C55.0816 112.38 52.8198 115.586 53.5737 124.328C54.3276 133.069 63.5063 142.249 82.5586 129.234M78.2577 108.609C79.8018 107.459 82.4996 107.665 84.0074 108.609" stroke="white" stroke-width="3" stroke-linecap="round" stroke-linejoin="round"/>
</g>
<g filter="url(#filter2_d_5_423)">
<path d="M194.025 116.909C200.301 111.372 212.146 100.403 207.268 128.02C232.479 139.358 222.315 149.039 224.622 153.71C225.185 154.874 225.961 155.903 226.903 156.732C227.844 157.562 228.932 158.177 230.099 158.538M209.171 143.96C212.423 144.319 213.922 144.757 216.043 146.743M207.668 160.441C209.403 168.784 218.686 179.473 230.562 165.234M179.56 128.728C160.394 136.654 163.3 166.773 145.115 174.699" stroke="white" stroke-width="3" stroke-linecap="round" stroke-linejoin="round"/>
<path d="M76.2821 100.152C90.9199 93.0725 99.154 89.9061 108.61 98.2645C120.459 108.737 131.005 137.313 167.815 139.451" stroke="white" stroke-width="3" stroke-linecap="round" stroke-linejoin="round"/>
<path d="M105.385 113.919C109.395 121.653 115.581 135.523 111.048 143.96M100.943 159.855C102.683 168.725 104.904 175.608 107.956 180.938M84.4116 141.246C85.1701 149.358 88.8897 152.185 94.9892 152.122M64.9006 111.372C55.0816 112.38 52.8198 115.586 53.5737 124.328C54.3276 133.069 63.5063 142.249 82.5586 129.234M78.2577 108.609C79.8018 107.459 82.4996 107.665 84.0074 108.609" stroke="white" stroke-width="3" stroke-linecap="round" stroke-linejoin="round"/>
</g>
<g filter="url(#filter3_f_5_423)">
<path d="M236.849 214.976C236.849 215.757 236.665 216.494 236.296 217.186C235.928 217.879 235.338 218.446 234.528 218.888C233.718 219.315 232.679 219.529 231.412 219.529H228.627V225.761H226.108V210.401H231.412C232.591 210.401 233.585 210.608 234.396 211.02C235.221 211.418 235.832 211.963 236.23 212.656C236.642 213.348 236.849 214.122 236.849 214.976ZM231.412 217.474C232.37 217.474 233.084 217.26 233.556 216.833C234.027 216.391 234.263 215.772 234.263 214.976C234.263 213.297 233.313 212.457 231.412 212.457H228.627V217.474H231.412Z" fill="white"/>
<path d="M209.648 214.976C209.648 215.757 209.464 216.494 209.095 217.186C208.727 217.879 208.138 218.446 207.327 218.888C206.517 219.315 205.478 219.529 204.211 219.529H201.426V225.761H198.907V210.401H204.211C205.39 210.401 206.384 210.608 207.195 211.02C208.02 211.418 208.631 211.963 209.029 212.656C209.442 213.348 209.648 214.122 209.648 214.976ZM204.211 217.474C205.169 217.474 205.883 217.26 206.355 216.833C206.826 216.391 207.062 215.772 207.062 214.976C207.062 213.297 206.112 212.457 204.211 212.457H201.426V217.474H204.211Z" fill="white"/>
<path d="M178.472 222.645H172.041L170.936 225.784H168.306L173.809 210.401H176.726L182.229 225.784H179.577L178.472 222.645ZM177.765 220.59L175.268 213.451L172.748 220.59H177.765Z" fill="white"/>
<path d="M135.988 224.677C135.03 224.677 134.168 224.507 133.402 224.169C132.65 223.815 132.054 223.343 131.612 222.754C131.17 222.15 130.934 221.48 130.904 220.743H133.512C133.557 221.259 133.8 221.693 134.242 222.047C134.698 222.386 135.266 222.555 135.943 222.555C136.651 222.555 137.196 222.423 137.579 222.157C137.977 221.877 138.176 221.524 138.176 221.097C138.176 220.64 137.955 220.301 137.513 220.08C137.085 219.859 136.4 219.616 135.457 219.351C134.544 219.1 133.8 218.857 133.225 218.621C132.65 218.386 132.149 218.025 131.722 217.538C131.31 217.052 131.103 216.411 131.103 215.616C131.103 214.967 131.295 214.378 131.678 213.847C132.061 213.302 132.606 212.875 133.313 212.566C134.035 212.256 134.861 212.102 135.789 212.102C137.174 212.102 138.286 212.455 139.126 213.162C139.981 213.855 140.437 214.805 140.496 216.013H137.977C137.933 215.468 137.712 215.034 137.314 214.709C136.916 214.385 136.378 214.223 135.7 214.223C135.037 214.223 134.529 214.348 134.175 214.599C133.822 214.849 133.645 215.181 133.645 215.593C133.645 215.918 133.763 216.19 133.999 216.411C134.234 216.632 134.522 216.809 134.861 216.942C135.199 217.059 135.7 217.214 136.363 217.406C137.247 217.641 137.969 217.885 138.529 218.135C139.104 218.371 139.597 218.724 140.01 219.196C140.423 219.667 140.636 220.294 140.651 221.074C140.651 221.767 140.459 222.386 140.076 222.931C139.693 223.476 139.148 223.903 138.441 224.213C137.748 224.522 136.931 224.677 135.988 224.677Z" fill="white"/>
<path d="M111.082 215.485V222.225C111.082 222.682 111.185 223.014 111.391 223.22C111.612 223.411 111.981 223.507 112.496 223.507H114.043V225.607H112.054C110.92 225.607 110.05 225.342 109.446 224.811C108.842 224.281 108.54 223.419 108.54 222.225V215.485H107.104V213.429H108.54V210.401H111.082V213.429H114.043V215.485H111.082Z" fill="white"/>
<path d="M90.2034 219.791C90.2034 220.248 90.174 220.66 90.115 221.029H80.8106C80.8843 222.001 81.2453 222.782 81.8936 223.371C82.5418 223.961 83.3375 224.255 84.2804 224.255C85.636 224.255 86.5937 223.688 87.1535 222.554H89.8719C89.5036 223.673 88.8332 224.594 87.8608 225.316C86.9031 226.023 85.7096 226.377 84.2804 226.377C83.1165 226.377 82.0704 226.119 81.1421 225.603C80.2286 225.073 79.5067 224.336 78.9763 223.393C78.4606 222.436 78.2027 221.331 78.2027 220.078C78.2027 218.826 78.4532 217.728 78.9542 216.785C79.4698 215.828 80.1844 215.091 81.0979 214.575C82.0262 214.059 83.087 213.802 84.2804 213.802C85.4297 213.802 86.4537 214.052 87.3524 214.553C88.2512 215.054 88.9511 215.761 89.452 216.675C89.953 217.573 90.2034 218.612 90.2034 219.791ZM87.5735 218.995C87.5587 218.067 87.2272 217.323 86.5789 216.763C85.9306 216.203 85.1276 215.923 84.1699 215.923C83.3006 215.923 82.5566 216.203 81.9378 216.763C81.3189 217.308 80.9506 218.052 80.8327 218.995H87.5735Z" fill="white"/>
<path d="M60.0426 214.976C60.0426 215.757 59.8585 216.494 59.4901 217.186C59.1218 217.879 58.5324 218.446 57.7221 218.888C56.9117 219.315 55.873 219.529 54.6058 219.529H51.8212V225.761H49.3017V210.401H54.6058C55.7846 210.401 56.7791 210.608 57.5895 211.02C58.4145 211.418 59.026 211.963 59.4238 212.656C59.8364 213.348 60.0426 214.122 60.0426 214.976ZM54.6058 217.474C55.5635 217.474 56.2781 217.26 56.7496 216.833C57.2211 216.391 57.4568 215.772 57.4568 214.976C57.4568 213.297 56.5065 212.457 54.6058 212.457H51.8212V217.474H54.6058Z" fill="white"/>
</g>
<g filter="url(#filter4_d_5_423)">
<path d="M236.849 214.976C236.849 215.757 236.665 216.494 236.296 217.186C235.928 217.879 235.338 218.446 234.528 218.888C233.718 219.315 232.679 219.529 231.412 219.529H228.627V225.761H226.108V210.401H231.412C232.591 210.401 233.585 210.608 234.396 211.02C235.221 211.418 235.832 211.963 236.23 212.656C236.642 213.348 236.849 214.122 236.849 214.976ZM231.412 217.474C232.37 217.474 233.084 217.26 233.556 216.833C234.027 216.391 234.263 215.772 234.263 214.976C234.263 213.297 233.313 212.457 231.412 212.457H228.627V217.474H231.412Z" fill="white"/>
<path d="M209.648 214.976C209.648 215.757 209.464 216.494 209.095 217.186C208.727 217.879 208.138 218.446 207.327 218.888C206.517 219.315 205.478 219.529 204.211 219.529H201.426V225.761H198.907V210.401H204.211C205.39 210.401 206.384 210.608 207.195 211.02C208.02 211.418 208.631 211.963 209.029 212.656C209.442 213.348 209.648 214.122 209.648 214.976ZM204.211 217.474C205.169 217.474 205.883 217.26 206.355 216.833C206.826 216.391 207.062 215.772 207.062 214.976C207.062 213.297 206.112 212.457 204.211 212.457H201.426V217.474H204.211Z" fill="white"/>
<path d="M178.472 222.645H172.041L170.936 225.784H168.306L173.809 210.401H176.726L182.229 225.784H179.577L178.472 222.645ZM177.765 220.59L175.268 213.451L172.748 220.59H177.765Z" fill="white"/>
<path d="M135.988 224.677C135.03 224.677 134.168 224.507 133.402 224.169C132.65 223.815 132.054 223.343 131.612 222.754C131.17 222.15 130.934 221.48 130.904 220.743H133.512C133.557 221.259 133.8 221.693 134.242 222.047C134.698 222.386 135.266 222.555 135.943 222.555C136.651 222.555 137.196 222.423 137.579 222.157C137.977 221.877 138.176 221.524 138.176 221.097C138.176 220.64 137.955 220.301 137.513 220.08C137.085 219.859 136.4 219.616 135.457 219.351C134.544 219.1 133.8 218.857 133.225 218.621C132.65 218.386 132.149 218.025 131.722 217.538C131.31 217.052 131.103 216.411 131.103 215.616C131.103 214.967 131.295 214.378 131.678 213.847C132.061 213.302 132.606 212.875 133.313 212.566C134.035 212.256 134.861 212.102 135.789 212.102C137.174 212.102 138.286 212.455 139.126 213.162C139.981 213.855 140.437 214.805 140.496 216.013H137.977C137.933 215.468 137.712 215.034 137.314 214.709C136.916 214.385 136.378 214.223 135.7 214.223C135.037 214.223 134.529 214.348 134.175 214.599C133.822 214.849 133.645 215.181 133.645 215.593C133.645 215.918 133.763 216.19 133.999 216.411C134.234 216.632 134.522 216.809 134.861 216.942C135.199 217.059 135.7 217.214 136.363 217.406C137.247 217.641 137.969 217.885 138.529 218.135C139.104 218.371 139.597 218.724 140.01 219.196C140.423 219.667 140.636 220.294 140.651 221.074C140.651 221.767 140.459 222.386 140.076 222.931C139.693 223.476 139.148 223.903 138.441 224.213C137.748 224.522 136.931 224.677 135.988 224.677Z" fill="white"/>
<path d="M111.082 215.485V222.225C111.082 222.682 111.185 223.014 111.391 223.22C111.612 223.411 111.981 223.507 112.496 223.507H114.043V225.607H112.054C110.92 225.607 110.05 225.342 109.446 224.811C108.842 224.281 108.54 223.419 108.54 222.225V215.485H107.104V213.429H108.54V210.401H111.082V213.429H114.043V215.485H111.082Z" fill="white"/>
<path d="M90.2034 219.791C90.2034 220.248 90.174 220.66 90.115 221.029H80.8106C80.8843 222.001 81.2453 222.782 81.8936 223.371C82.5418 223.961 83.3375 224.255 84.2804 224.255C85.636 224.255 86.5937 223.688 87.1535 222.554H89.8719C89.5036 223.673 88.8332 224.594 87.8608 225.316C86.9031 226.023 85.7096 226.377 84.2804 226.377C83.1165 226.377 82.0704 226.119 81.1421 225.603C80.2286 225.073 79.5067 224.336 78.9763 223.393C78.4606 222.436 78.2027 221.331 78.2027 220.078C78.2027 218.826 78.4532 217.728 78.9542 216.785C79.4698 215.828 80.1844 215.091 81.0979 214.575C82.0262 214.059 83.087 213.802 84.2804 213.802C85.4297 213.802 86.4537 214.052 87.3524 214.553C88.2512 215.054 88.9511 215.761 89.452 216.675C89.953 217.573 90.2034 218.612 90.2034 219.791ZM87.5735 218.995C87.5587 218.067 87.2272 217.323 86.5789 216.763C85.9306 216.203 85.1276 215.923 84.1699 215.923C83.3006 215.923 82.5566 216.203 81.9378 216.763C81.3189 217.308 80.9506 218.052 80.8327 218.995H87.5735Z" fill="white"/>
<path d="M60.0426 214.976C60.0426 215.757 59.8585 216.494 59.4901 217.186C59.1218 217.879 58.5324 218.446 57.7221 218.888C56.9117 219.315 55.873 219.529 54.6058 219.529H51.8212V225.761H49.3017V210.401H54.6058C55.7846 210.401 56.7791 210.608 57.5895 211.02C58.4145 211.418 59.026 211.963 59.4238 212.656C59.8364 213.348 60.0426 214.122 60.0426 214.976ZM54.6058 217.474C55.5635 217.474 56.2781 217.26 56.7496 216.833C57.2211 216.391 57.4568 215.772 57.4568 214.976C57.4568 213.297 56.5065 212.457 54.6058 212.457H51.8212V217.474H54.6058Z" fill="white"/>
</g>
<defs>
<filter id="filter0_d_5_423" x="28.5012" y="194.001" width="228.607" height="50.1013" filterUnits="userSpaceOnUse" color-interpolation-filters="sRGB">
<feFlood flood-opacity="0" result="BackgroundImageFix"/>
<feColorMatrix in="SourceAlpha" type="matrix" values="0 0 0 0 0 0 0 0 0 0 0 0 0 0 0 0 0 0 127 0" result="hardAlpha"/>
<feMorphology radius="2" operator="dilate" in="SourceAlpha" result="effect1_dropShadow_5_423"/>
<feOffset dy="1"/>
<feGaussianBlur stdDeviation="1.75"/>
<feComposite in2="hardAlpha" operator="out"/>
<feColorMatrix type="matrix" values="0 0 0 0 0 0 0 0 0 0 0 0 0 0 0 0 0 0 0.3 0"/>
<feBlend mode="normal" in2="BackgroundImageFix" result="effect1_dropShadow_5_423"/>
<feBlend mode="normal" in="SourceGraphic" in2="effect1_dropShadow_5_423" result="shape"/>
</filter>
<filter id="filter1_f_5_423" x="26.2" y="-6.8" width="231.6" height="249.6" filterUnits="userSpaceOnUse" color-interpolation-filters="sRGB">
<feFlood flood-opacity="0" result="BackgroundImageFix"/>
<feBlend mode="normal" in="SourceGraphic" in2="BackgroundImageFix" result="shape"/>
<feGaussianBlur stdDeviation="3.4" result="effect1_foregroundBlur_5_423"/>
</filter>
<filter id="filter2_d_5_423" x="29" y="0" width="226" height="244" filterUnits="userSpaceOnUse" color-interpolation-filters="sRGB">
<feFlood flood-opacity="0" result="BackgroundImageFix"/>
<feColorMatrix in="SourceAlpha" type="matrix" values="0 0 0 0 0 0 0 0 0 0 0 0 0 0 0 0 0 0 127 0" result="hardAlpha"/>
<feOffset dy="4"/>
<feGaussianBlur stdDeviation="2"/>
<feComposite in2="hardAlpha" operator="out"/>
<feColorMatrix type="matrix" values="0 0 0 0 0 0 0 0 0 0 0 0 0 0 0 0 0 0 0.25 0"/>
<feBlend mode="normal" in2="BackgroundImageFix" result="effect1_dropShadow_5_423"/>
<feBlend mode="normal" in="SourceGraphic" in2="effect1_dropShadow_5_423" result="shape"/>
</filter>
<filter id="filter3_f_5_423" x="47.4017" y="208.501" width="191.347" height="19.7755" filterUnits="userSpaceOnUse" color-interpolation-filters="sRGB">
<feFlood flood-opacity="0" result="BackgroundImageFix"/>
<feBlend mode="normal" in="SourceGraphic" in2="BackgroundImageFix" result="shape"/>
<feGaussianBlur stdDeviation="0.95" result="effect1_foregroundBlur_5_423"/>
</filter>
<filter id="filter4_d_5_423" x="49.3017" y="210.401" width="191.447" height="19.8755" filterUnits="userSpaceOnUse" color-interpolation-filters="sRGB">
<feFlood flood-opacity="0" result="BackgroundImageFix"/>
<feColorMatrix in="SourceAlpha" type="matrix" values="0 0 0 0 0 0 0 0 0 0 0 0 0 0 0 0 0 0 127 0" result="hardAlpha"/>
<feOffset dx="2" dy="2"/>
<feGaussianBlur stdDeviation="0.95"/>
<feComposite in2="hardAlpha" operator="out"/>
<feColorMatrix type="matrix" values="0 0 0 0 0 0 0 0 0 0 0 0 0 0 0 0 0 0 0.25 0"/>
<feBlend mode="normal" in2="BackgroundImageFix" result="effect1_dropShadow_5_423"/>
<feBlend mode="normal" in="SourceGraphic" in2="effect1_dropShadow_5_423" result="shape"/>
</filter>
</defs>
</svg>
